<svg xmlns="http://www.w3.org/2000/svg" xmlns:xlink="http://www.w3.org/1999/xlink" width="24" height="24" viewBox="0 0 24 24" fill="none"><g opacity="1"  transform="translate(0 0)"><path id="Combined Shape" fill-rule="evenodd" style="fill:#ffffff" opacity="1" d="M7.85 11.85C8.05 11.66 8.05 11.34 7.85 11.15C7.66 10.95 7.34 10.95 7.15 11.15L3.15 15.15C2.95 15.34 2.95 15.66 3.15 15.85L7.15 19.85C7.34 20.05 7.66 20.05 7.85 19.85C8.05 19.66 8.05 19.34 7.85 19.15L4.71 16L18.5 16C19.88 16 21 14.88 21 13.5L21 7.5C21 6.12 19.88 5 18.5 5L3.5 5C3.22 5 3 5.22 3 5.5C3 5.78 3.22 6 3.5 6L18.5 6C19.33 6 20 6.67 20 7.5L20 13.5C20 14.33 19.33 15 18.5 15L4.71 15L7.85 11.85Z"></path></g></svg>